<svg xmlns="http://www.w3.org/2000/svg" viewBox="-1.7 -1.7 5.4 4.247591861931344" width="640" height="640" role="img"><title>P-03 Recinto</title><desc>Proyección canónica. Uniones declaradas en JSON; los cruces interiores no unen.</desc><rect x="-1.7" y="-1.7" width="5.4" height="4.247591861931344" fill="white"/><defs><mask id="joinmask-P-03" maskUnits="userSpaceOnUse" x="-2.0" y="-2.0" width="6.0" height="4.847591861931344"><rect x="-2.0" y="-2.0" width="6.0" height="4.847591861931344" fill="white"/><circle cx="3.0" cy="1.0" r=".18" fill="black"/><circle cx="1.0" cy="1.0" r=".18" fill="black"/><circle cx="1.0" cy="-1.0" r=".18" fill="black"/></mask></defs>
<g mask="url(#joinmask-P-03)"><path d="M -1 0 L 0 0 C 0.7 0 1 -0.5 1 -1 M 0 0 L 1 1" transform="matrix(1 0 -0 1 0 0)" fill="none" stroke="white" stroke-width="0.2125" stroke-linejoin="round" stroke-linecap="round"/></g>
<path d="M -1 0 L 0 0 C 0.7 0 1 -0.5 1 -1 M 0 0 L 1 1" transform="matrix(1 0 -0 1 0 0)" fill="none" stroke="#182634" stroke-width="0.085" stroke-linejoin="round" stroke-linecap="round"/>
<g mask="url(#joinmask-P-03)"><path d="M 1 -1 L 0 0 L 1 1" transform="matrix(-1 1 -1 -1 3 -1)" fill="none" stroke="white" stroke-width="0.15026019" stroke-linejoin="round" stroke-linecap="round"/></g>
<path d="M 1 -1 L 0 0 L 1 1" transform="matrix(-1 1 -1 -1 3 -1)" fill="none" stroke="#182634" stroke-width="0.060104076" stroke-linejoin="round" stroke-linecap="round"/>
<g mask="url(#joinmask-P-03)"><path d="M -1.4 0 L -1 0 C -1 1.05 1 1.05 1 -0.65" transform="matrix(0.776384957541 0.210270926001 -0.210270926001 0.776384957541 2.08693894056 1.2943792964)" fill="none" stroke="white" stroke-width="0.26418673" stroke-linejoin="round" stroke-linecap="round"/></g>
<path d="M -1.4 0 L -1 0 C -1 1.05 1 1.05 1 -0.65" transform="matrix(0.776384957541 0.210270926001 -0.210270926001 0.776384957541 2.08693894056 1.2943792964)" fill="none" stroke="#182634" stroke-width="0.10567469" stroke-linejoin="round" stroke-linecap="round"/></svg>